# xmcd
#
# Track frame offsets:
# 150
# 12210
# 26722
# 49072
# 62092
# 84520
# 97970
# 115550
# 128887
# 145250
# 156467
#
# Disc length: 2317 seconds
#
# Revision: 0
# Processed by: cddbd v1.4PL0 Copyright (c) Steve Scherf et al.
# Submitted via: MacMP3 Pro 5.0 (http://mp3.act2.co.jp/)
#
DISCID=8b090b0b
DTITLE=Gram Parsons - GP
DYEAR=1900
DGENRE=
TTITLE0=Still Feeling Blue
TTITLE1=We'll Sweep Out The Ashes In The Morning
TTITLE2=A Song For You
TTITLE3=Streets Of Baltimore
TTITLE4=She
TTITLE5=That's All It Took
TTITLE6=The New Soft Shoe
TTITLE7=Kiss The Children
TTITLE8=Cry One More Time
TTITLE9=How Much I've Lied
TTITLE10=Big Mouth Blues
EXTD=
EXTT0=
EXTT1=
EXTT2=
EXTT3=
EXTT4=
EXTT5=
EXTT6=
EXTT7=
EXTT8=
EXTT9=
EXTT10=
PLAYORDER=
